<?xml version="1.0" encoding="UTF-8" standalone="no"?>
<!DOCTYPE svg PUBLIC "-//W3C//DTD SVG 1.1//EN"
 "http://www.w3.org/Graphics/SVG/1.1/DTD/svg11.dtd">
<!-- Generated by graphviz version 2.42.4 (0)
 -->
<!-- Title: Architecture Pages: 1 -->
<svg width="492pt" height="462pt"
 viewBox="0.00 0.00 491.90 462.40" xmlns="http://www.w3.org/2000/svg" xmlns:xlink="http://www.w3.org/1999/xlink">
<g id="graph0" class="graph" transform="scale(1 1) rotate(0) translate(25.2 437.2)">
<title>Architecture</title>
<polygon fill="white" stroke="transparent" points="-25.2,25.2 -25.2,-437.2 466.7,-437.2 466.7,25.2 -25.2,25.2"/>
<!-- Browser -->
<g id="node1" class="node">
<title>Browser</title>
<path fill="#ecfdf5" stroke="#0b3a2e" d="M364.5,-412C364.5,-412 179.5,-412 179.5,-412 173.5,-412 167.5,-406 167.5,-400 167.5,-400 167.5,-388 167.5,-388 167.5,-382 173.5,-376 179.5,-376 179.5,-376 364.5,-376 364.5,-376 370.5,-376 376.5,-382 376.5,-388 376.5,-388 376.5,-400 376.5,-400 376.5,-406 370.5,-412 364.5,-412"/>
<text text-anchor="middle" x="272" y="-397.2" font-family="DejaVu Sans" font-size="11.00">Web Browser</text>
<text text-anchor="middle" x="272" y="-385.2" font-family="DejaVu Sans" font-size="11.00">Admin | Teacher | Student | Control</text>
</g>
<!-- MVC -->
<g id="node2" class="node">
<title>MVC</title>
<path fill="#f8fafc" stroke="#0b3a2e" d="M391.5,-313C391.5,-313 152.5,-313 152.5,-313 146.5,-313 140.5,-307 140.5,-301 140.5,-301 140.5,-289 140.5,-289 140.5,-283 146.5,-277 152.5,-277 152.5,-277 391.5,-277 391.5,-277 397.5,-277 403.5,-283 403.5,-289 403.5,-289 403.5,-301 403.5,-301 403.5,-307 397.5,-313 391.5,-313"/>
<text text-anchor="middle" x="272" y="-298.2" font-family="DejaVu Sans" font-size="11.00">ASP.NET Core MVC</text>
<text text-anchor="middle" x="272" y="-286.2" font-family="DejaVu Sans" font-size="11.00">Controllers + Razor Views + Session + CSRF</text>
</g>
<!-- Browser&#45;&gt;MVC -->
<g id="edge1" class="edge">
<title>Browser&#45;&gt;MVC</title>
<path fill="none" stroke="#64748b" d="M272,-375.66C272,-360.62 272,-338.66 272,-321.6"/>
<polygon fill="#64748b" stroke="#64748b" points="274.8,-321.19 272,-313.19 269.2,-321.19 274.8,-321.19"/>
<text text-anchor="middle" x="297.5" y="-340.8" font-family="Times,serif" font-size="14.00">HTTPS</text>
</g>
<!-- Services -->
<g id="node3" class="node">
<title>Services</title>
<path fill="#f8fafc" stroke="#0b3a2e" d="M310,-228C310,-228 12,-228 12,-228 6,-228 0,-222 0,-216 0,-216 0,-204 0,-204 0,-198 6,-192 12,-192 12,-192 310,-192 310,-192 316,-192 322,-198 322,-204 322,-204 322,-216 322,-216 322,-222 316,-228 310,-228"/>
<text text-anchor="middle" x="161" y="-213.2" font-family="DejaVu Sans" font-size="11.00">Domain Services</text>
<text text-anchor="middle" x="161" y="-201.2" font-family="DejaVu Sans" font-size="11.00">ScoreCalculator | YemenTime | PasswordService | SMTP</text>
</g>
<!-- MVC&#45;&gt;Services -->
<g id="edge2" class="edge">
<title>MVC&#45;&gt;Services</title>
<path fill="none" stroke="#64748b" d="M249,-276.8C232.03,-264.12 208.81,-246.75 190.48,-233.04"/>
<polygon fill="#64748b" stroke="#64748b" points="192.05,-230.72 183.97,-228.18 188.7,-235.21 192.05,-230.72"/>
</g>
<!-- EF -->
<g id="node4" class="node">
<title>EF</title>
<path fill="#f8fafc" stroke="#0b3a2e" d="M429.5,-129C429.5,-129 286.5,-129 286.5,-129 280.5,-129 274.5,-123 274.5,-117 274.5,-117 274.5,-105 274.5,-105 274.5,-99 280.5,-93 286.5,-93 286.5,-93 429.5,-93 429.5,-93 435.5,-93 441.5,-99 441.5,-105 441.5,-105 441.5,-117 441.5,-117 441.5,-123 435.5,-129 429.5,-129"/>
<text text-anchor="middle" x="358" y="-114.2" font-family="DejaVu Sans" font-size="11.00">Entity Framework Core</text>
<text text-anchor="middle" x="358" y="-102.2" font-family="DejaVu Sans" font-size="11.00">UniRemoteExamDbContext</text>
</g>
<!-- MVC&#45;&gt;EF -->
<g id="edge3" class="edge">
<title>MVC&#45;&gt;EF</title>
<path fill="none" stroke="#64748b" d="M297.55,-276.87C313.05,-265.04 331.75,-247.89 342,-228 356.75,-199.39 359.37,-161.8 359.23,-137.28"/>
<polygon fill="#64748b" stroke="#64748b" points="362.03,-137.13 359.08,-129.18 356.43,-137.24 362.03,-137.13"/>
</g>
<!-- Services&#45;&gt;EF -->
<g id="edge4" class="edge">
<title>Services&#45;&gt;EF</title>
<path fill="none" stroke="#64748b" d="M203.48,-191.96C220.32,-184.92 239.74,-176.44 257,-168 278.88,-157.3 302.74,-144.14 321.77,-133.27"/>
<polygon fill="#64748b" stroke="#64748b" points="323.27,-135.64 328.81,-129.23 320.48,-130.78 323.27,-135.64"/>
</g>
<!-- SMTP -->
<g id="node6" class="node">
<title>SMTP</title>
<polygon fill="#fff7ed" stroke="#c2410c" points="209,-129 113,-129 113,-125 109,-125 109,-121 113,-121 113,-101 109,-101 109,-97 113,-97 113,-93 209,-93 209,-129"/>
<polyline fill="none" stroke="#c2410c" points="113,-125 117,-125 117,-121 113,-121 "/>
<polyline fill="none" stroke="#c2410c" points="113,-101 117,-101 117,-97 113,-97 "/>
<text text-anchor="middle" x="161" y="-114.2" font-family="DejaVu Sans" font-size="11.00">SMTP Provider</text>
<text text-anchor="middle" x="161" y="-102.2" font-family="DejaVu Sans" font-size="11.00">Optional</text>
</g>
<!-- Services&#45;&gt;SMTP -->
<g id="edge6" class="edge">
<title>Services&#45;&gt;SMTP</title>
<path fill="none" stroke="#64748b" d="M161,-191.66C161,-176.62 161,-154.66 161,-137.6"/>
<polygon fill="#64748b" stroke="#64748b" points="163.8,-137.19 161,-129.19 158.2,-137.19 163.8,-137.19"/>
<text text-anchor="middle" x="204" y="-156.8" font-family="Times,serif" font-size="14.00">result email</text>
</g>
<!-- SQL -->
<g id="node5" class="node">
<title>SQL</title>
<path fill="#eff6ff" stroke="#1d4ed8" d="M434.5,-40C434.5,-42.21 400.21,-44 358,-44 315.79,-44 281.5,-42.21 281.5,-40 281.5,-40 281.5,-4 281.5,-4 281.5,-1.79 315.79,0 358,0 400.21,0 434.5,-1.79 434.5,-4 434.5,-4 434.5,-40 434.5,-40"/>
<path fill="none" stroke="#1d4ed8" d="M434.5,-40C434.5,-37.79 400.21,-36 358,-36 315.79,-36 281.5,-37.79 281.5,-40"/>
<text text-anchor="middle" x="358" y="-25.2" font-family="DejaVu Sans" font-size="11.00">SQL Server</text>
<text text-anchor="middle" x="358" y="-13.2" font-family="DejaVu Sans" font-size="11.00">UniRemoteExamDb_Final</text>
</g>
<!-- EF&#45;&gt;SQL -->
<g id="edge5" class="edge">
<title>EF&#45;&gt;SQL</title>
<path fill="none" stroke="#64748b" d="M358,-92.81C358,-81.25 358,-65.71 358,-52.23"/>
<polygon fill="#64748b" stroke="#64748b" points="360.8,-52.15 358,-44.15 355.2,-52.15 360.8,-52.15"/>
</g>
</g>
</svg>
