<?xml version="1.0" encoding="UTF-8" standalone="no"?>
<!DOCTYPE svg PUBLIC "-//W3C//DTD SVG 1.1//EN"
 "http://www.w3.org/Graphics/SVG/1.1/DTD/svg11.dtd">
<!-- Generated by graphviz version 2.42.4 (0)
 -->
<!-- Title: Workflow Pages: 1 -->
<svg width="2142pt" height="149pt"
 viewBox="0.00 0.00 2142.40 149.40" xmlns="http://www.w3.org/2000/svg" xmlns:xlink="http://www.w3.org/1999/xlink">
<g id="graph0" class="graph" transform="scale(1 1) rotate(0) translate(25.2 124.2)">
<title>Workflow</title>
<polygon fill="white" stroke="transparent" points="-25.2,25.2 -25.2,-124.2 2117.2,-124.2 2117.2,25.2 -25.2,25.2"/>
<!-- Teacher -->
<g id="node1" class="node">
<title>Teacher</title>
<path fill="#f8fafc" stroke="#0b3a2e" d="M231,-40C231,-40 12,-40 12,-40 6,-40 0,-34 0,-28 0,-28 0,-16 0,-16 0,-10 6,-4 12,-4 12,-4 231,-4 231,-4 237,-4 243,-10 243,-16 243,-16 243,-28 243,-28 243,-34 237,-40 231,-40"/>
<text text-anchor="middle" x="121.5" y="-25.2" font-family="DejaVu Sans" font-size="11.00">Teacher</text>
<text text-anchor="middle" x="121.5" y="-13.2" font-family="DejaVu Sans" font-size="11.00">Create exam + questions + answer key</text>
</g>
<!-- Pending -->
<g id="node2" class="node">
<title>Pending</title>
<path fill="#fff7ed" stroke="#c2410c" d="M373,-74C373,-74 292,-74 292,-74 286,-74 280,-68 280,-62 280,-62 280,-50 280,-50 280,-44 286,-38 292,-38 292,-38 373,-38 373,-38 379,-38 385,-44 385,-50 385,-50 385,-62 385,-62 385,-68 379,-74 373,-74"/>
<text text-anchor="middle" x="332.5" y="-53.2" font-family="DejaVu Sans" font-size="11.00">PendingReview</text>
</g>
<!-- Teacher&#45;&gt;Pending -->
<g id="edge1" class="edge">
<title>Teacher&#45;&gt;Pending</title>
<path fill="none" stroke="#16725a" stroke-width="1.4" d="M233.43,-40.05C246.6,-42.19 259.64,-44.31 271.7,-46.27"/>
<polygon fill="#16725a" stroke="#16725a" stroke-width="1.4" points="271.54,-49.08 279.89,-47.6 272.44,-43.56 271.54,-49.08"/>
</g>
<!-- Admin -->
<g id="node3" class="node">
<title>Admin</title>
<path fill="#f8fafc" stroke="#0b3a2e" d="M637,-74C637,-74 542,-74 542,-74 536,-74 530,-68 530,-62 530,-62 530,-50 530,-50 530,-44 536,-38 542,-38 542,-38 637,-38 637,-38 643,-38 649,-44 649,-50 649,-50 649,-62 649,-62 649,-68 643,-74 637,-74"/>
<text text-anchor="middle" x="589.5" y="-59.2" font-family="DejaVu Sans" font-size="11.00">Admin review</text>
<text text-anchor="middle" x="589.5" y="-47.2" font-family="DejaVu Sans" font-size="11.00">Approve or reject</text>
</g>
<!-- Pending&#45;&gt;Admin -->
<g id="edge2" class="edge">
<title>Pending&#45;&gt;Admin</title>
<path fill="none" stroke="#16725a" stroke-width="1.4" d="M385.1,-56C424.48,-56 479.04,-56 521.74,-56"/>
<polygon fill="#16725a" stroke="#16725a" stroke-width="1.4" points="521.84,-58.8 529.84,-56 521.84,-53.2 521.84,-58.8"/>
</g>
<!-- Rejected -->
<g id="node4" class="node">
<title>Rejected</title>
<path fill="#fef2f2" stroke="#b91c1c" d="M883.5,-36C883.5,-36 787.5,-36 787.5,-36 781.5,-36 775.5,-30 775.5,-24 775.5,-24 775.5,-12 775.5,-12 775.5,-6 781.5,0 787.5,0 787.5,0 883.5,0 883.5,0 889.5,0 895.5,-6 895.5,-12 895.5,-12 895.5,-24 895.5,-24 895.5,-30 889.5,-36 883.5,-36"/>
<text text-anchor="middle" x="835.5" y="-21.2" font-family="DejaVu Sans" font-size="11.00">Rejected</text>
<text text-anchor="middle" x="835.5" y="-9.2" font-family="DejaVu Sans" font-size="11.00">Return to teacher</text>
</g>
<!-- Admin&#45;&gt;Rejected -->
<g id="edge3" class="edge">
<title>Admin&#45;&gt;Rejected</title>
<path fill="none" stroke="#16725a" stroke-width="1.4" d="M649.25,-46.85C684.78,-41.32 730.2,-34.24 767.17,-28.49"/>
<polygon fill="#16725a" stroke="#16725a" stroke-width="1.4" points="767.94,-31.2 775.41,-27.2 767.07,-25.67 767.94,-31.2"/>
<text text-anchor="middle" x="695.5" y="-46.8" font-family="DejaVu Sans" font-size="14.00">reject</text>
</g>
<!-- Published -->
<g id="node5" class="node">
<title>Published</title>
<path fill="#ecfdf5" stroke="#047857" d="M917,-99C917,-99 754,-99 754,-99 748,-99 742,-93 742,-87 742,-87 742,-75 742,-75 742,-69 748,-63 754,-63 754,-63 917,-63 917,-63 923,-63 929,-69 929,-75 929,-75 929,-87 929,-87 929,-93 923,-99 917,-99"/>
<text text-anchor="middle" x="835.5" y="-84.2" font-family="DejaVu Sans" font-size="11.00">Published</text>
<text text-anchor="middle" x="835.5" y="-72.2" font-family="DejaVu Sans" font-size="11.00">Available to enrolled students</text>
</g>
<!-- Admin&#45;&gt;Published -->
<g id="edge5" class="edge">
<title>Admin&#45;&gt;Published</title>
<path fill="none" stroke="#16725a" stroke-width="1.4" d="M649.25,-62.02C674.65,-64.62 705.09,-67.74 733.89,-70.69"/>
<polygon fill="#16725a" stroke="#16725a" stroke-width="1.4" points="733.73,-73.49 741.97,-71.52 734.3,-67.92 733.73,-73.49"/>
<text text-anchor="middle" x="695.5" y="-72.8" font-family="DejaVu Sans" font-size="14.00">approve</text>
</g>
<!-- Rejected&#45;&gt;Teacher -->
<g id="edge4" class="edge">
<title>Rejected&#45;&gt;Teacher</title>
<path fill="none" stroke="#16725a" stroke-width="1.4" d="M775.25,-18.33C660.76,-18.98 406.75,-20.4 251.52,-21.28"/>
<polygon fill="#16725a" stroke="#16725a" stroke-width="1.4" points="251.27,-18.48 243.28,-21.32 251.3,-24.08 251.27,-18.48"/>
<text text-anchor="middle" x="457.5" y="-24.8" font-family="DejaVu Sans" font-size="14.00">edit + resubmit</text>
</g>
<!-- Student -->
<g id="node6" class="node">
<title>Student</title>
<path fill="#f8fafc" stroke="#0b3a2e" d="M1153,-99C1153,-99 978,-99 978,-99 972,-99 966,-93 966,-87 966,-87 966,-75 966,-75 966,-69 972,-63 978,-63 978,-63 1153,-63 1153,-63 1159,-63 1165,-69 1165,-75 1165,-75 1165,-87 1165,-87 1165,-93 1159,-99 1153,-99"/>
<text text-anchor="middle" x="1065.5" y="-84.2" font-family="DejaVu Sans" font-size="11.00">Student attempt</text>
<text text-anchor="middle" x="1065.5" y="-72.2" font-family="DejaVu Sans" font-size="11.00">Server timers + locked answers</text>
</g>
<!-- Published&#45;&gt;Student -->
<g id="edge6" class="edge">
<title>Published&#45;&gt;Student</title>
<path fill="none" stroke="#16725a" stroke-width="1.4" d="M929.24,-81C938.68,-81 948.32,-81 957.89,-81"/>
<polygon fill="#16725a" stroke="#16725a" stroke-width="1.4" points="957.9,-83.8 965.9,-81 957.9,-78.2 957.9,-83.8"/>
</g>
<!-- Submitted -->
<g id="node7" class="node">
<title>Submitted</title>
<path fill="#f8fafc" stroke="#0b3a2e" d="M1480,-99C1480,-99 1328,-99 1328,-99 1322,-99 1316,-93 1316,-87 1316,-87 1316,-75 1316,-75 1316,-69 1322,-63 1328,-63 1328,-63 1480,-63 1480,-63 1486,-63 1492,-69 1492,-75 1492,-75 1492,-87 1492,-87 1492,-93 1486,-99 1480,-99"/>
<text text-anchor="middle" x="1404" y="-84.2" font-family="DejaVu Sans" font-size="11.00">Submitted</text>
<text text-anchor="middle" x="1404" y="-72.2" font-family="DejaVu Sans" font-size="11.00">Automatic questions scored</text>
</g>
<!-- Student&#45;&gt;Submitted -->
<g id="edge7" class="edge">
<title>Student&#45;&gt;Submitted</title>
<path fill="none" stroke="#16725a" stroke-width="1.4" d="M1165.19,-81C1210.1,-81 1263.04,-81 1307.55,-81"/>
<polygon fill="#16725a" stroke="#16725a" stroke-width="1.4" points="1307.76,-83.8 1315.76,-81 1307.76,-78.2 1307.76,-83.8"/>
<text text-anchor="middle" x="1240.5" y="-84.8" font-family="DejaVu Sans" font-size="14.00">submit / timeout</text>
</g>
<!-- Control -->
<g id="node8" class="node">
<title>Control</title>
<path fill="#f8fafc" stroke="#0b3a2e" d="M1675,-99C1675,-99 1541,-99 1541,-99 1535,-99 1529,-93 1529,-87 1529,-87 1529,-75 1529,-75 1529,-69 1535,-63 1541,-63 1541,-63 1675,-63 1675,-63 1681,-63 1687,-69 1687,-75 1687,-75 1687,-87 1687,-87 1687,-93 1681,-99 1675,-99"/>
<text text-anchor="middle" x="1608" y="-84.2" font-family="DejaVu Sans" font-size="11.00">Control</text>
<text text-anchor="middle" x="1608" y="-72.2" font-family="DejaVu Sans" font-size="11.00">Grade essays + validate</text>
</g>
<!-- Submitted&#45;&gt;Control -->
<g id="edge8" class="edge">
<title>Submitted&#45;&gt;Control</title>
<path fill="none" stroke="#16725a" stroke-width="1.4" d="M1492.13,-81C1501.55,-81 1511.13,-81 1520.53,-81"/>
<polygon fill="#16725a" stroke="#16725a" stroke-width="1.4" points="1520.75,-83.8 1528.75,-81 1520.75,-78.2 1520.75,-83.8"/>
</g>
<!-- Closed -->
<g id="node9" class="node">
<title>Closed</title>
<path fill="#ecfdf5" stroke="#047857" d="M1883,-99C1883,-99 1785,-99 1785,-99 1779,-99 1773,-93 1773,-87 1773,-87 1773,-75 1773,-75 1773,-69 1779,-63 1785,-63 1785,-63 1883,-63 1883,-63 1889,-63 1895,-69 1895,-75 1895,-75 1895,-87 1895,-87 1895,-93 1889,-99 1883,-99"/>
<text text-anchor="middle" x="1834" y="-84.2" font-family="DejaVu Sans" font-size="11.00">Closed</text>
<text text-anchor="middle" x="1834" y="-72.2" font-family="DejaVu Sans" font-size="11.00">Final result stored</text>
</g>
<!-- Control&#45;&gt;Closed -->
<g id="edge9" class="edge">
<title>Control&#45;&gt;Closed</title>
<path fill="none" stroke="#16725a" stroke-width="1.4" d="M1687.03,-81C1712.33,-81 1740.18,-81 1764.71,-81"/>
<polygon fill="#16725a" stroke="#16725a" stroke-width="1.4" points="1764.89,-83.8 1772.89,-81 1764.89,-78.2 1764.89,-83.8"/>
<text text-anchor="middle" x="1730" y="-84.8" font-family="DejaVu Sans" font-size="14.00">finalize</text>
</g>
<!-- Result -->
<g id="node10" class="node">
<title>Result</title>
<path fill="#f8fafc" stroke="#0b3a2e" d="M2080,-99C2080,-99 1944,-99 1944,-99 1938,-99 1932,-93 1932,-87 1932,-87 1932,-75 1932,-75 1932,-69 1938,-63 1944,-63 1944,-63 2080,-63 2080,-63 2086,-63 2092,-69 2092,-75 2092,-75 2092,-87 2092,-87 2092,-93 2086,-99 2080,-99"/>
<text text-anchor="middle" x="2012" y="-84.2" font-family="DejaVu Sans" font-size="11.00">Student result / review</text>
<text text-anchor="middle" x="2012" y="-72.2" font-family="DejaVu Sans" font-size="11.00">Reports + optional email</text>
</g>
<!-- Closed&#45;&gt;Result -->
<g id="edge10" class="edge">
<title>Closed&#45;&gt;Result</title>
<path fill="none" stroke="#16725a" stroke-width="1.4" d="M1895.08,-81C1904.33,-81 1914.05,-81 1923.76,-81"/>
<polygon fill="#16725a" stroke="#16725a" stroke-width="1.4" points="1923.9,-83.8 1931.9,-81 1923.9,-78.2 1923.9,-83.8"/>
</g>
</g>
</svg>
